<?xml version="1.0" encoding="UTF-8" standalone="no"?>
<!DOCTYPE svg PUBLIC "-//W3C//DTD SVG 1.1//EN"
 "http://www.w3.org/Graphics/SVG/1.1/DTD/svg11.dtd">
<!-- Generated by graphviz version 2.36.0 (20140111.2315)
 -->
<!-- Title: G Pages: 1 -->
<svg width="350pt" height="618pt"
 viewBox="0.00 0.00 350.00 618.00" xmlns="http://www.w3.org/2000/svg" xmlns:xlink="http://www.w3.org/1999/xlink">
<g id="graph0" class="graph" transform="scale(1 1) rotate(0) translate(4 614)">
<title>G</title>
<polygon fill="white" stroke="none" points="-4,4 -4,-614 346,-614 346,4 -4,4"/>
<g id="clust1" class="cluster"><title>cluster_Global</title>
<path fill="none" stroke="gray" d="M30,-44C30,-44 322,-44 322,-44 328,-44 334,-50 334,-56 334,-56 334,-590 334,-590 334,-596 328,-602 322,-602 322,-602 30,-602 30,-602 24,-602 18,-596 18,-590 18,-590 18,-56 18,-56 18,-50 24,-44 30,-44"/>
<text text-anchor="middle" x="176" y="-589.2" font-family="Times,serif" font-size="11.00" fill="gray">Global</text>
</g>
<!-- \\lifeCache -->
<g id="node1" class="node"><title>\\lifeCache</title>
<polygon fill="none" stroke="black" points="301,-574 241,-574 241,-538 301,-538 301,-574"/>
<text text-anchor="middle" x="271" y="-553.2" font-family="Times,serif" font-size="11.00">lifeCache</text>
</g>
<!-- \\lifeCacheEngine -->
<g id="node2" class="node"><title>\\lifeCacheEngine</title>
<polygon fill="none" stroke="black" points="117.5,-439 26.5,-439 26.5,-403 117.5,-403 117.5,-439"/>
<text text-anchor="middle" x="72" y="-418.2" font-family="Times,serif" font-size="11.00">lifeCacheEngine</text>
</g>
<!-- \\lifeCacheFile -->
<g id="node3" class="node"><title>\\lifeCacheFile</title>
<polygon fill="none" stroke="black" points="309.5,-520 232.5,-520 232.5,-484 309.5,-484 309.5,-520"/>
<text text-anchor="middle" x="271" y="-499.2" font-family="Times,serif" font-size="11.00">lifeCacheFile</text>
</g>
<!-- \\lifeCacheFile&#45;&gt;\\lifeCacheEngine -->
<g id="edge1" class="edge"><title>\\lifeCacheFile&#45;&gt;\\lifeCacheEngine</title>
<path fill="none" stroke="black" d="M232.482,-486.574C202.508,-474.25 160.113,-456.818 126.568,-443.025"/>
<polygon fill="none" stroke="black" points="127.493,-439.621 116.913,-439.056 124.831,-446.095 127.493,-439.621"/>
</g>
<!-- \\lifeCacheApc -->
<g id="node4" class="node"><title>\\lifeCacheApc</title>
<polygon fill="none" stroke="black" points="310.5,-466 231.5,-466 231.5,-430 310.5,-430 310.5,-466"/>
<text text-anchor="middle" x="271" y="-445.2" font-family="Times,serif" font-size="11.00">lifeCacheApc</text>
</g>
<!-- \\lifeCacheApc&#45;&gt;\\lifeCacheEngine -->
<g id="edge2" class="edge"><title>\\lifeCacheApc&#45;&gt;\\lifeCacheEngine</title>
<path fill="none" stroke="black" d="M231.079,-442.666C201.508,-438.613 160.46,-432.987 127.605,-428.484"/>
<polygon fill="none" stroke="black" points="128.075,-425.016 117.693,-427.125 127.125,-431.951 128.075,-425.016"/>
</g>
<!-- \\lifeCacheMemcache -->
<g id="node5" class="node"><title>\\lifeCacheMemcache</title>
<polygon fill="none" stroke="black" points="326,-412 216,-412 216,-376 326,-376 326,-412"/>
<text text-anchor="middle" x="271" y="-391.2" font-family="Times,serif" font-size="11.00">lifeCacheMemcache</text>
</g>
<!-- \\lifeCacheMemcache&#45;&gt;\\lifeCacheEngine -->
<g id="edge3" class="edge"><title>\\lifeCacheMemcache&#45;&gt;\\lifeCacheEngine</title>
<path fill="none" stroke="black" d="M215.908,-401.414C188.537,-405.165 155.379,-409.71 127.895,-413.476"/>
<polygon fill="none" stroke="black" points="127.095,-410.053 117.663,-414.879 128.046,-416.988 127.095,-410.053"/>
</g>
<!-- \\lifeCacheXcache -->
<g id="node6" class="node"><title>\\lifeCacheXcache</title>
<polygon fill="none" stroke="black" points="318.5,-358 223.5,-358 223.5,-322 318.5,-322 318.5,-358"/>
<text text-anchor="middle" x="271" y="-337.2" font-family="Times,serif" font-size="11.00">lifeCacheXcache</text>
</g>
<!-- \\lifeCacheXcache&#45;&gt;\\lifeCacheEngine -->
<g id="edge4" class="edge"><title>\\lifeCacheXcache&#45;&gt;\\lifeCacheEngine</title>
<path fill="none" stroke="black" d="M225.789,-358.178C196.387,-370.267 157.598,-386.216 126.462,-399.018"/>
<polygon fill="none" stroke="black" points="124.981,-395.843 117.063,-402.883 127.643,-402.317 124.981,-395.843"/>
</g>
<!-- \\lifeFile -->
<g id="node7" class="node"><title>\\lifeFile</title>
<polygon fill="none" stroke="black" points="298,-304 244,-304 244,-268 298,-268 298,-304"/>
<text text-anchor="middle" x="271" y="-283.2" font-family="Times,serif" font-size="11.00">lifeFile</text>
</g>
<!-- \\lifeFileHandler -->
<g id="node8" class="node"><title>\\lifeFileHandler</title>
<polygon fill="none" stroke="black" points="313.5,-250 228.5,-250 228.5,-214 313.5,-214 313.5,-250"/>
<text text-anchor="middle" x="271" y="-229.2" font-family="Times,serif" font-size="11.00">lifeFileHandler</text>
</g>
<!-- \\lifeFolderHandler -->
<g id="node9" class="node"><title>\\lifeFolderHandler</title>
<polygon fill="none" stroke="black" points="319,-196 223,-196 223,-160 319,-160 319,-196"/>
<text text-anchor="middle" x="271" y="-175.2" font-family="Times,serif" font-size="11.00">lifeFolderHandler</text>
</g>
<!-- \\lifeRadio -->
<g id="node10" class="node"><title>\\lifeRadio</title>
<polygon fill="none" stroke="black" points="300,-142 242,-142 242,-106 300,-106 300,-142"/>
<text text-anchor="middle" x="271" y="-121.2" font-family="Times,serif" font-size="11.00">lifeRadio</text>
</g>
<!-- \\XmlDomConstruct -->
<g id="node11" class="node"><title>\\XmlDomConstruct</title>
<polygon fill="none" stroke="black" points="321.5,-88 220.5,-88 220.5,-52 321.5,-52 321.5,-88"/>
<text text-anchor="middle" x="271" y="-67.2" font-family="Times,serif" font-size="11.00">XmlDomConstruct</text>
</g>
<!-- \\DOMDocument -->
<g id="node12" class="node"><title>\\DOMDocument</title>
<ellipse fill="none" stroke="black" cx="72" cy="-18" rx="71.4873" ry="18"/>
<text text-anchor="middle" x="72" y="-14.3" font-family="Times,serif" font-size="14.00" fill="gray">\DOMDocument</text>
</g>
<!-- \\XmlDomConstruct&#45;&gt;\\DOMDocument -->
<g id="edge5" class="edge"><title>\\XmlDomConstruct&#45;&gt;\\DOMDocument</title>
<path fill="none" stroke="black" d="M220.289,-56.8782C193.371,-49.773 159.949,-40.9511 131.75,-33.5077"/>
<polygon fill="none" stroke="black" points="132.575,-30.1056 122.013,-30.9375 130.789,-36.8738 132.575,-30.1056"/>
</g>
</g>
</svg>
